name C:\Users\r0593348\3dpredictsim\Results\MidTarsalJoint\Fal_s1_bCst_PF_Natali2010_ls150_MT_k2000_MTP_T10_ig24.mot
datacolumns 128
datarows 4
range 0.00000000 0.03348304
endheader
time	pelvis_tilt	pelvis_list	pelvis_rotation	pelvis_tx	pelvis_ty	pelvis_tz	hip_flexion_l	hip_adduction_l	hip_rotation_l	hip_flexion_r	hip_adduction_r	hip_rotation_r	knee_angle_l	knee_angle_r	ankle_angle_l	ankle_angle_r	subtalar_angle_l	subtalar_angle_r	mtj_angle_l	mtj_angle_r	mtp_angle_l	mtp_angle_r	lumbar_extension	lumbar_bending	lumbar_rotation	arm_flex_l	arm_add_l	arm_rot_l	arm_flex_r	arm_add_r	arm_rot_r	elbow_flex_l	elbow_flex_r	pro_sup_l	pro_sup_r	glut_med1_l/activation	glut_med2_l/activation	glut_med3_l/activation	glut_min1_l/activation	glut_min2_l/activation	glut_min3_l/activation	semimem_l/activation	semiten_l/activation	bifemlh_l/activation	bifemsh_l/activation	sar_l/activation	add_long_l/activation	add_brev_l/activation	add_mag1_l/activation	add_mag2_l/activation	add_mag3_l/activation	tfl_l/activation	pect_l/activation	grac_l/activation	glut_max1_l/activation	glut_max2_l/activation	glut_max3_l/activation	iliacus_l/activation	psoas_l/activation	quad_fem_l/activation	gem_l/activation	peri_l/activation	rect_fem_l/activation	vas_med_l/activation	vas_int_l/activation	vas_lat_l/activation	med_gas_l/activation	lat_gas_l/activation	soleus_l/activation	tib_post_l/activation	flex_dig_l/activation	flex_hal_l/activation	tib_ant_l/activation	per_brev_l/activation	per_long_l/activation	per_tert_l/activation	ext_dig_l/activation	ext_hal_l/activation	ercspn_l/activation	intobl_l/activation	extobl_l/activation	glut_med1_r/activation	glut_med2_r/activation	glut_med3_r/activation	glut_min1_r/activation	glut_min2_r/activation	glut_min3_r/activation	semimem_r/activation	semiten_r/activation	bifemlh_r/activation	bifemsh_r/activation	sar_r/activation	add_long_r/activation	add_brev_r/activation	add_mag1_r/activation	add_mag2_r/activation	add_mag3_r/activation	tfl_r/activation	pect_r/activation	grac_r/activation	glut_max1_r/activation	glut_max2_r/activation	glut_max3_r/activation	iliacus_r/activation	psoas_r/activation	quad_fem_r/activation	gem_r/activation	peri_r/activation	rect_fem_r/activation	vas_med_r/activation	vas_int_r/activation	vas_lat_r/activation	med_gas_r/activation	lat_gas_r/activation	soleus_r/activation	tib_post_r/activation	flex_dig_r/activation	flex_hal_r/activation	tib_ant_r/activation	per_brev_r/activation	per_long_r/activation	per_tert_r/activation	ext_dig_r/activation	ext_hal_r/activation	ercspn_r/activation	intobl_r/activation	extobl_r/activation	
          0.00000000	         -2.92924781	         -1.96907495	          4.81665358	          0.00000000	          0.92085055	         -0.00180182	        -17.48229480	         -0.83614091	          6.33929447	         29.90092537	          3.14411006	         -2.00281990	         -5.15957530	        -12.98728343	          0.20752582	          6.36324681	          7.87611163	         -4.27356967	          0.97727255	         -0.00696863	         16.96365091	         -0.81747687	         -2.24179330	          0.10869902	         -1.87719427	          5.46043417	        -13.45097084	         16.63120479	         -3.80989390	        -13.46997312	          7.69684570	         31.78125464	         16.51603534	         86.51662706	         86.51662706	          0.32348336	          0.11734596	          0.08342092	          0.35296904	          0.23215913	          0.12910321	          0.05000187	          0.05000059	          0.05000049	          0.07373705	          0.11737776	          0.05000031	          0.05000021	          0.05000034	          0.05000097	          0.05000084	          0.35510338	          0.05000122	          0.05000116	          0.05004971	          0.05000914	          0.05000196	          0.43155982	          0.64504453	          0.05000101	          0.05001834	          0.06769147	          0.24799047	          0.05000072	          0.05000076	          0.05000074	          0.33658805	          0.46035995	          0.32303130	          0.29092112	          0.31176515	          0.38593630	          0.05000012	          0.06058819	          0.13621827	          0.05000054	          0.05000015	          0.05000056	          0.05000003	          0.05000003	          0.05000005	          0.06855925	          0.05000447	          0.05929961	          0.05000275	          0.05000254	          0.05001569	          0.09557483	          0.05930585	          0.21566484	          0.05001268	          0.05000277	          0.13182767	          0.17047013	          0.15744021	          0.13895350	          0.11284386	          0.05064538	          0.05004455	          0.08475198	          0.05930152	          0.08809513	          0.10001522	          0.05000030	          0.05000079	          0.17169965	          0.05000077	          0.05000359	          0.05000031	          0.05000217	          0.05000317	          0.05000138	          0.05000011	          0.05000025	          0.05000004	          0.05930073	          0.05000672	          0.05589569	          0.45298911	          0.26754610	          0.20338733	          0.08728605	          0.42899500	          0.15631997	          0.07033185	          0.12777924	          0.11959690	
          0.01116101	         -2.92983024	         -2.06357997	          5.11927894	          0.01642906	          0.91979431	         -0.00160346	        -17.41657450	         -1.13368378	          6.12005470	         29.35961691	          3.49582263	         -1.80605238	         -6.95278914	        -12.52521684	         -0.39196346	          6.01587892	          8.78397532	         -4.67001519	          0.82084280	         -0.00520203	         17.98378906	         -0.80943816	         -2.07447794	          0.31371964	         -1.94799386	          5.26528128	        -13.45876542	         17.00356145	         -4.64019835	        -13.47108528	          7.36283961	         32.93602004	         16.13930582	         86.51662706	         86.51662706	          0.27274928	          0.09894127	          0.07033710	          0.29760915	          0.19574705	          0.10885454	          0.05000216	          0.05000065	          0.05000047	          0.06217208	          0.09896849	          0.11260365	          0.06258318	          0.05000781	          0.05000910	          0.05000218	          0.29940880	          0.10793269	          0.05001464	          0.05001193	          0.05000765	          0.05000691	          0.37615666	          0.61281092	          0.05001160	          0.05000226	          0.05707477	          0.20909591	          0.06177400	          0.05007220	          0.05003679	          0.28379704	          0.38815648	          0.29884656	          0.28626051	          0.28275591	          0.37160932	          0.05000009	          0.05930030	          0.13813691	          0.05000050	          0.05000013	          0.05000048	          0.05000010	          0.05000042	          0.05000029	          0.05780676	          0.05736325	          0.05000048	          0.05930087	          0.05930077	          0.05000612	          0.09235994	          0.05000447	          0.20708695	          0.05000036	          0.05000113	          0.13403218	          0.30694798	          0.16220258	          0.14979970	          0.11474442	          0.05000035	          0.08331463	          0.07146098	          0.05000134	          0.13595073	          0.15923743	          0.05576703	          0.05000100	          0.15337818	          0.25011571	          0.12901692	          0.06085404	          0.15734117	          0.15327996	          0.13842248	          0.05000092	          0.05000112	          0.05242570	          0.05000006	          0.05000104	          0.05000045	          0.58631314	          0.28253105	          0.17148805	          0.27724407	          0.50240763	          0.24560134	          0.05930091	          0.10773815	          0.10083914	
          0.02232203	         -2.92556393	         -2.15653317	          5.39768330	          0.03321383	          0.91876736	         -0.00139923	        -17.25304865	         -1.42778864	          5.89797846	         28.71339114	          3.82756613	         -1.55991120	         -8.92977698	        -12.66515772	         -1.12747099	          5.41075006	          9.67126724	         -5.04645299	          0.63499241	         -0.01727136	         18.92766515	         -0.79370083	         -1.88061087	          0.52602122	         -2.01130376	          4.98357364	        -13.46927176	         17.29751719	         -5.51586689	        -13.47372291	          7.05858418	         34.08286848	         15.82818360	         86.51662706	         86.51662706	          0.22997097	          0.08342320	          0.05930537	          0.25093205	          0.16504587	          0.09178171	          0.05000625	          0.05000108	          0.05000126	          0.05242103	          0.08344651	          0.19869331	          0.09249770	          0.05987919	          0.05170275	          0.05930143	          0.25244932	          0.09102403	          0.05000526	          0.05000618	          0.05000442	          0.05000579	          0.31715981	          0.56532298	          0.05000105	          0.05027385	          0.05930060	          0.17630188	          0.11516000	          0.16132220	          0.15365895	          0.23928585	          0.32727741	          0.25197500	          0.24549707	          0.23840912	          0.31332685	          0.05000007	          0.05000033	          0.14404045	          0.05000022	          0.05000007	          0.05000033	          0.05866176	          0.05930213	          0.05334571	          0.05000003	          0.05000013	          0.11067201	          0.05000012	          0.05000014	          0.05000024	          0.07787423	          0.05000118	          0.17460719	          0.05000078	          0.05000683	          0.11301067	          0.25880624	          0.31985537	          0.21918775	          0.13419649	          0.05000151	          0.07025106	          0.11848218	          0.08231595	          0.12038035	          0.13426275	          0.05000018	          0.05000232	          0.37504287	          0.21088722	          0.10878177	          0.05930524	          0.15129631	          0.15695350	          0.13094970	          0.05000036	          0.05930118	          0.05000005	          0.07032407	          0.05000862	          0.05930181	          0.49435516	          0.32735644	          0.21066476	          0.23376091	          0.45390558	          0.20708093	          0.05000007	          0.09084033	          0.08502337	
          0.03348304	         -2.91735102	         -2.25078749	          5.64744790	          0.05025406	          0.91777077	         -0.00120847	        -17.01375302	         -1.71799480	          5.66672235	         27.94477517	          4.08486703	         -1.29536080	        -11.02804741	        -13.12780598	         -2.03206624	          4.92637019	         10.50393781	         -5.44362997	          0.43629255	         -0.02816432	         19.71148032	         -0.85618652	         -1.66937474	          0.74690592	         -2.06343182	          4.62939318	        -13.47849141	         17.51434238	         -6.41039419	        -13.48253555	          6.81045204	         35.21813375	         15.55816853	         86.51662706	         86.51662706	          0.32705348	          0.07033901	          0.05000389	          0.32441512	          0.13915997	          0.07738660	          0.05000320	          0.05000051	          0.05000042	          0.05000041	          0.07035918	          0.16753102	          0.09167801	          0.05048846	          0.05000355	          0.05000185	          0.21286063	          0.07792006	          0.05000320	          0.05000459	          0.05000273	          0.05000191	          0.26741618	          0.52823362	          0.05000050	          0.05000120	          0.05000045	          0.14865051	          0.09709858	          0.13602062	          0.12955922	          0.20175586	          0.27594670	          0.21245482	          0.20699307	          0.20101701	          0.26418448	          0.05000004	          0.10554857	          0.16352541	          0.05000029	          0.05000012	          0.05000028	          0.05549700	          0.05000110	          0.05000011	          0.24067754	          0.23409755	          0.29049194	          0.34356750	          0.21715790	          0.18846534	          0.08213254	          0.05000210	          0.14912607	          0.05000226	          0.05000492	          0.09528600	          0.21821481	          0.26968894	          0.18481029	          0.12067466	          0.05000110	          0.05929812	          0.09990015	          0.15185526	          0.14634247	          0.11320515	          0.05855016	          0.05000145	          0.31622068	          0.17781161	          0.22504061	          0.05000378	          0.12756699	          0.13233692	          0.11041153	          0.05000123	          0.05000136	          0.05160420	          0.05929455	          0.05000083	          0.05000172	          0.58014044	          0.33793971	          0.17762417	          0.37477898	          0.53750883	          0.17460653	          0.06404007	          0.10997639	          0.07168818	
